solid OpenSCAD_Model
  facet normal 1 -0 0
    outer loop
      vertex 11.8 9 23
      vertex 11.8 15 15
      vertex 11.8 15 30
    endloop
  endfacet
  facet normal 1 0 0
    outer loop
      vertex 11.8 9 0
      vertex 11.8 15 15
      vertex 11.8 9 23
    endloop
  endfacet
  facet normal 1 0 0
    outer loop
      vertex 11.8 15 30
      vertex 11.8 6 23
      vertex 11.8 9 23
    endloop
  endfacet
  facet normal 1 -0 0
    outer loop
      vertex 11.8 0 30
      vertex 11.8 6 23
      vertex 11.8 15 30
    endloop
  endfacet
  facet normal 1 0 0
    outer loop
      vertex 11.8 0 0
      vertex 11.8 6 23
      vertex 11.8 0 30
    endloop
  endfacet
  facet normal 1 0 0
    outer loop
      vertex 11.8 6 23
      vertex 11.8 0 0
      vertex 11.8 6 0
    endloop
  endfacet
  facet normal 1 0 0
    outer loop
      vertex 11.8 15 15
      vertex 11.8 9 0
      vertex 11.8 15 0
    endloop
  endfacet
  facet normal -0 0 1
    outer loop
      vertex 0 15 30
      vertex 11.8 0 30
      vertex 11.8 15 30
    endloop
  endfacet
  facet normal 0 0 1
    outer loop
      vertex 11.8 0 30
      vertex 0 15 30
      vertex 0 0 30
    endloop
  endfacet
  facet normal 0 0 -1
    outer loop
      vertex 11.8 9 0
      vertex 0 9 0
      vertex 11.8 15 0
    endloop
  endfacet
  facet normal 0 0 -1
    outer loop
      vertex 11.8 15 0
      vertex 58.5 25 0
      vertex 58.5 15 0
    endloop
  endfacet
  facet normal 0 0 -1
    outer loop
      vertex 11.8 15 0
      vertex 0 25 0
      vertex 58.5 25 0
    endloop
  endfacet
  facet normal 0 0 -1
    outer loop
      vertex 0 25 0
      vertex 11.8 15 0
      vertex 0 9 0
    endloop
  endfacet
  facet normal 0 0 -1
    outer loop
      vertex 0 0 0
      vertex 11.8 6 0
      vertex 11.8 0 0
    endloop
  endfacet
  facet normal -0 0 -1
    outer loop
      vertex 11.8 6 0
      vertex 0 0 0
      vertex 0 6 0
    endloop
  endfacet
  facet normal -1 0 0
    outer loop
      vertex 0 6 0
      vertex 0 0 0
      vertex 0 6 23
    endloop
  endfacet
  facet normal -1 0 0
    outer loop
      vertex 0 25 0
      vertex 0 15 15
      vertex 0 25 15
    endloop
  endfacet
  facet normal -1 0 0
    outer loop
      vertex 0 9 0
      vertex 0 15 15
      vertex 0 25 0
    endloop
  endfacet
  facet normal -1 0 0
    outer loop
      vertex 0 9 23
      vertex 0 15 15
      vertex 0 9 0
    endloop
  endfacet
  facet normal -1 0 0
    outer loop
      vertex 0 15 15
      vertex 0 9 23
      vertex 0 15 30
    endloop
  endfacet
  facet normal -1 0 0
    outer loop
      vertex 0 6 23
      vertex 0 15 30
      vertex 0 9 23
    endloop
  endfacet
  facet normal -1 0 0
    outer loop
      vertex 0 6 23
      vertex 0 0 30
      vertex 0 15 30
    endloop
  endfacet
  facet normal -1 0 0
    outer loop
      vertex 0 0 30
      vertex 0 6 23
      vertex 0 0 0
    endloop
  endfacet
  facet normal 0 1 -0
    outer loop
      vertex 11.8 15 15
      vertex 0 15 30
      vertex 11.8 15 30
    endloop
  endfacet
  facet normal 0 1 0
    outer loop
      vertex 0 15 30
      vertex 11.8 15 15
      vertex 0 15 15
    endloop
  endfacet
  facet normal 0 -1 0
    outer loop
      vertex 11.8 15 0
      vertex 58.5 15 15
      vertex 11.8 15 15
    endloop
  endfacet
  facet normal 0 -1 -0
    outer loop
      vertex 58.5 15 15
      vertex 11.8 15 0
      vertex 58.5 15 0
    endloop
  endfacet
  facet normal 0 -1 0
    outer loop
      vertex 0 0 0
      vertex 11.8 0 30
      vertex 0 0 30
    endloop
  endfacet
  facet normal 0 -1 -0
    outer loop
      vertex 11.8 0 30
      vertex 0 0 0
      vertex 11.8 0 0
    endloop
  endfacet
  facet normal 0 0 -1
    outer loop
      vertex 0 6 23
      vertex 11.8 9 23
      vertex 11.8 6 23
    endloop
  endfacet
  facet normal -0 0 -1
    outer loop
      vertex 11.8 9 23
      vertex 0 6 23
      vertex 0 9 23
    endloop
  endfacet
  facet normal 0 -1 0
    outer loop
      vertex 0 9 0
      vertex 11.8 9 23
      vertex 0 9 23
    endloop
  endfacet
  facet normal 0 -1 -0
    outer loop
      vertex 11.8 9 23
      vertex 0 9 0
      vertex 11.8 9 0
    endloop
  endfacet
  facet normal 0 1 -0
    outer loop
      vertex 11.8 6 0
      vertex 0 6 23
      vertex 11.8 6 23
    endloop
  endfacet
  facet normal 0 1 0
    outer loop
      vertex 0 6 23
      vertex 11.8 6 0
      vertex 0 6 0
    endloop
  endfacet
  facet normal 1 -0 0
    outer loop
      vertex 58.5 15 15
      vertex 58.5 25 0
      vertex 58.5 25 15
    endloop
  endfacet
  facet normal 1 0 0
    outer loop
      vertex 58.5 25 0
      vertex 58.5 15 15
      vertex 58.5 15 0
    endloop
  endfacet
  facet normal 0 0 1
    outer loop
      vertex 58.5 25 15
      vertex 11.8 15 15
      vertex 58.5 15 15
    endloop
  endfacet
  facet normal -0 0 1
    outer loop
      vertex 0 25 15
      vertex 11.8 15 15
      vertex 58.5 25 15
    endloop
  endfacet
  facet normal 0 0 1
    outer loop
      vertex 11.8 15 15
      vertex 0 25 15
      vertex 0 15 15
    endloop
  endfacet
  facet normal 0 1 -0
    outer loop
      vertex 58.5 25 0
      vertex 0 25 15
      vertex 58.5 25 15
    endloop
  endfacet
  facet normal 0 1 0
    outer loop
      vertex 0 25 15
      vertex 58.5 25 0
      vertex 0 25 0
    endloop
  endfacet
endsolid OpenSCAD_Model
